<svg xmlns="http://www.w3.org/2000/svg" xmlns:xlink="http://www.w3.org/1999/xlink" contentStyleType="text/css" height="562px" preserveAspectRatio="none" style="width:679px;height:562px;background:#FFFFFF;" version="1.1" viewBox="0 0 679 562" width="679px" zoomAndPan="magnify"><defs/><g><text fill="#000000" font-family="sans-serif" font-size="14" font-weight="bold" lengthAdjust="spacing" textLength="397.9609" x="130.5825" y="22.9951">Caso de Uso - Asignaci&#243;n de Docente a Asignatura</text><ellipse cx="336.56" cy="53.2969" fill="#222222" rx="10" ry="10" style="stroke:#222222;stroke-width:1.0;"/><path d="M19.5,173.2969 L653.6259,173.2969 A12.5,12.5 0 0 1 666.1259,185.7969 L666.1259,199.5938 L7,199.5938 L7,185.7969 A12.5,12.5 0 0 1 19.5,173.2969 " fill="#FAF4B4" style="stroke:#FAF4B4;stroke-width:1.0;"/><rect fill="none" height="383.2969" rx="12.5" ry="12.5" style="stroke:#C90000;stroke-width:0.5;" width="659.1259" x="7" y="173.2969"/><line style="stroke:#C90000;stroke-width:0.5;" x1="7" x2="666.1259" y1="199.5938" y2="199.5938"/><text fill="#000000" font-family="sans-serif" font-size="14" lengthAdjust="spacing" textLength="36.8047" x="318.1606" y="191.292">inicio</text><ellipse cx="166.33" cy="220.5938" fill="#222222" rx="10" ry="10" style="stroke:#222222;stroke-width:1.0;"/><g id="inicio.seleccionar_docente"><rect fill="#FAF4B4" height="50" rx="12.5" ry="12.5" style="stroke:#C90000;stroke-width:0.5;" width="294.668" x="19" y="266.5938"/><line style="stroke:#C90000;stroke-width:0.5;" x1="19" x2="313.668" y1="292.8906" y2="292.8906"/><text fill="#000000" font-family="sans-serif" font-size="14" lengthAdjust="spacing" textLength="274.668" x="29" y="284.5889">Seleccionar docente para la asignatura</text></g><g id="inicio.evaluar_compatibilidad"><rect fill="#FAF4B4" height="50" rx="12.5" ry="12.5" style="stroke:#C90000;stroke-width:0.5;" width="180.9111" x="75.88" y="352.5938"/><line style="stroke:#C90000;stroke-width:0.5;" x1="75.88" x2="256.7911" y1="378.8906" y2="378.8906"/><text fill="#000000" font-family="sans-serif" font-size="14" lengthAdjust="spacing" textLength="160.9111" x="85.88" y="370.5889">Evaluar compatibilidad</text></g><g id="elem_GMN10"><path d="M331.54,271.4638 L331.54,287.5938 L314,291.5938 L331.54,295.5938 L331.54,311.7294 A0,0 0 0 0 331.54,311.7294 L657.1259,311.7294 A0,0 0 0 0 657.1259,311.7294 L657.1259,281.4638 L647.1259,271.4638 L331.54,271.4638 A0,0 0 0 0 331.54,271.4638 " fill="#F5F5F5" style="stroke:#181818;stroke-width:0.5;"/><path d="M647.1259,271.4638 L647.1259,281.4638 L657.1259,281.4638 L647.1259,271.4638 " fill="#F5F5F5" style="stroke:#181818;stroke-width:0.5;"/><text fill="#000000" font-family="sans-serif" font-size="13" lengthAdjust="spacing" textLength="131.936" x="337.54" y="288.5306">Coordinador eval&#250;a:</text><text fill="#000000" font-family="sans-serif" font-size="13" lengthAdjust="spacing" textLength="304.5859" x="337.54" y="303.6635">- Compatibilidad del docente con la asignatura</text></g><g id="inicio.confirmar_asignacion"><rect fill="#FAF4B4" height="50" rx="12.5" ry="12.5" style="stroke:#C90000;stroke-width:0.5;" width="169.3379" x="81.67" y="438.5938"/><line style="stroke:#C90000;stroke-width:0.5;" x1="81.67" x2="251.0079" y1="464.8906" y2="464.8906"/><text fill="#000000" font-family="sans-serif" font-size="14" lengthAdjust="spacing" textLength="149.3379" x="91.67" y="456.5889">Confirmar asignaci&#243;n</text></g><g id="elem_GMN15"><path d="M274.73,365.0238 L274.73,373.5938 L257.11,377.5938 L274.73,381.5938 L274.73,390.1566 A0,0 0 0 0 274.73,390.1566 L607.9395,390.1566 A0,0 0 0 0 607.9395,390.1566 L607.9395,375.0238 L597.9395,365.0238 L274.73,365.0238 A0,0 0 0 0 274.73,365.0238 " fill="#F5F5F5" style="stroke:#181818;stroke-width:0.5;"/><path d="M597.9395,365.0238 L597.9395,375.0238 L607.9395,375.0238 L597.9395,365.0238 " fill="#F5F5F5" style="stroke:#181818;stroke-width:0.5;"/><text fill="#000000" font-family="sans-serif" font-size="13" lengthAdjust="spacing" textLength="312.2095" x="280.73" y="382.0906">Docente asignado a la asignatura exitosamente</text></g><ellipse cx="166.33" cy="535.5938" fill="none" rx="11" ry="11" style="stroke:#222222;stroke-width:1.0;"/><ellipse cx="166.33" cy="535.5938" fill="#222222" rx="6" ry="6" style="stroke:#222222;stroke-width:1.0;"/><g id="elem_GMN20"><path d="M269.39,451.0238 L269.39,459.5938 L251.42,463.5938 L269.39,467.5938 L269.39,476.1566 A0,0 0 0 0 269.39,476.1566 L611.2704,476.1566 A0,0 0 0 0 611.2704,476.1566 L611.2704,461.0238 L601.2704,451.0238 L269.39,451.0238 A0,0 0 0 0 269.39,451.0238 " fill="#F5F5F5" style="stroke:#181818;stroke-width:0.5;"/><path d="M601.2704,451.0238 L601.2704,461.0238 L611.2704,461.0238 L601.2704,451.0238 " fill="#F5F5F5" style="stroke:#181818;stroke-width:0.5;"/><text fill="#000000" font-family="sans-serif" font-size="13" lengthAdjust="spacing" textLength="320.8804" x="275.39" y="468.0906">Confirmar asignaci&#243;n del docente a la asignatura</text></g><!--link *start*inicio to seleccionar_docente--><g id="link_*start*inicio_seleccionar_docente"><path d="M166.33,230.9038 C166.33,239.9438 166.33,248.0838 166.33,260.3238 " fill="none" id="*start*inicio-to-seleccionar_docente" style="stroke:#181818;stroke-width:1.0;"/><polygon fill="#181818" points="166.33,266.3238,170.33,257.3238,166.33,261.3238,162.33,257.3238,166.33,266.3238" style="stroke:#181818;stroke-width:1.0;"/></g><!--link seleccionar_docente to evaluar_compatibilidad--><g id="link_seleccionar_docente_evaluar_compatibilidad"><path d="M166.33,316.8938 C166.33,328.0338 166.33,335.2138 166.33,346.3538 " fill="none" id="seleccionar_docente-to-evaluar_compatibilidad" style="stroke:#181818;stroke-width:1.0;"/><polygon fill="#181818" points="166.33,352.3538,170.33,343.3538,166.33,347.3538,162.33,343.3538,166.33,352.3538" style="stroke:#181818;stroke-width:1.0;"/></g><!--link evaluar_compatibilidad to confirmar_asignacion--><g id="link_evaluar_compatibilidad_confirmar_asignacion"><path d="M166.33,402.8938 C166.33,414.0338 166.33,421.2138 166.33,432.3538 " fill="none" id="evaluar_compatibilidad-to-confirmar_asignacion" style="stroke:#181818;stroke-width:1.0;"/><polygon fill="#181818" points="166.33,438.3538,170.33,429.3538,166.33,433.3538,162.33,429.3538,166.33,438.3538" style="stroke:#181818;stroke-width:1.0;"/></g><!--link confirmar_asignacion to *end*inicio--><g id="link_confirmar_asignacion_*end*inicio"><path d="M166.33,489.0738 C166.33,501.0638 166.33,508.8638 166.33,518.0938 " fill="none" id="confirmar_asignacion-to-*end*inicio" style="stroke:#181818;stroke-width:1.0;"/><polygon fill="#181818" points="166.33,524.0938,170.33,515.0938,166.33,519.0938,162.33,515.0938,166.33,524.0938" style="stroke:#181818;stroke-width:1.0;"/></g><!--link *start* to inicio--><g id="link_*start*_inicio"><path d="M336.56,63.5669 C336.56,81.8269 336.56,118.8969 336.56,166.8769 " fill="none" id="*start*-to-inicio" style="stroke:#181818;stroke-width:1.0;"/><polygon fill="#181818" points="336.56,172.8769,340.56,163.8769,336.56,167.8769,332.56,163.8769,336.56,172.8769" style="stroke:#181818;stroke-width:1.0;"/><path d="M341.56,98.2969 L341.56,138.2969 L637.56,138.2969 L637.56,108.2969 L627.56,98.2969 L341.56,98.2969 " fill="#F5F5F5" style="stroke:#181818;stroke-width:0.5;"/><path d="M627.56,98.2969 L627.56,108.2969 L637.56,108.2969 L627.56,98.2969 " fill="#F5F5F5" style="stroke:#181818;stroke-width:0.5;"/><text fill="#000000" font-family="sans-serif" font-size="13" lengthAdjust="spacing" textLength="197.4883" x="347.56" y="115.3638">Coordinador acad&#233;mico inicia:</text><text fill="#000000" font-family="sans-serif" font-size="13" lengthAdjust="spacing" textLength="275.0059" x="347.56" y="130.4966">- Proceso de asignar docente a asignatura</text></g><!--SRC=[TLAzJiCm4Dxp52VOa28nb04690ZiI8W98NIrdNAguwji5o6XFX0p6sjVZBEJ9eGcoP3exlpz-SAQt0OzDX0YHWEV1S0jglNAyzRfYYrxEAsnNYmNgSDU6zzLrUMvFCMkA48FudWMuoAzQJfIj0Og30pQm9DyIhW9j7AeQF_jKl6EbN62X5qZRZqMnVFP2vJbDP0ZHLnaBdPWoQs5iM8HHmwriA52lVzgI74xZ5SoKCA35zoM5ZEk1zqpuS1adCvEn5aEfINClWuQWh56IL4mNZiCwRRZ9uz3ioT8-O3zItCY_vCu2UYud6dDEzgjr1Gt6uoq94iQjHp8ONXQlKNWUaRTEAC4jV_9oQHigX6YH6HxwIg5F0e8O8YeTttVQeEnjknoHdR2cUnahq9Ras-aYTrsi3joEXi834kKJsk6V_c3-Q380PikdWbBrK42uB2WsT6CkAboDYDxSwHz1YDTqmJjw4fm_a9slm00]--></g></svg>