<svg xmlns="http://www.w3.org/2000/svg" xmlns:xlink="http://www.w3.org/1999/xlink" contentStyleType="text/css" height="562px" preserveAspectRatio="none" style="width:746px;height:562px;background:#FFFFFF;" version="1.1" viewBox="0 0 746 562" width="746px" zoomAndPan="magnify"><defs/><g><text fill="#000000" font-family="sans-serif" font-size="14" font-weight="bold" lengthAdjust="spacing" textLength="296.2969" x="214.6545" y="22.9951">Caso de Uso - Creaci&#243;n de Asignatura</text><ellipse cx="369.8" cy="53.2969" fill="#222222" rx="10" ry="10" style="stroke:#222222;stroke-width:1.0;"/><path d="M19.5,173.2969 L720.1059,173.2969 A12.5,12.5 0 0 1 732.6059,185.7969 L732.6059,199.5938 L7,199.5938 L7,185.7969 A12.5,12.5 0 0 1 19.5,173.2969 " fill="#FAF4B4" style="stroke:#FAF4B4;stroke-width:1.0;"/><rect fill="none" height="383.2969" rx="12.5" ry="12.5" style="stroke:#C90000;stroke-width:0.5;" width="725.6059" x="7" y="173.2969"/><line style="stroke:#C90000;stroke-width:0.5;" x1="7" x2="732.6059" y1="199.5938" y2="199.5938"/><text fill="#000000" font-family="sans-serif" font-size="14" lengthAdjust="spacing" textLength="36.8047" x="351.4006" y="191.292">inicio</text><ellipse cx="154.23" cy="220.5938" fill="#222222" rx="10" ry="10" style="stroke:#222222;stroke-width:1.0;"/><g id="inicio.definir_parametros_asignatura"><rect fill="#FAF4B4" height="50" rx="12.5" ry="12.5" style="stroke:#C90000;stroke-width:0.5;" width="270.4551" x="19" y="266.5938"/><line style="stroke:#C90000;stroke-width:0.5;" x1="19" x2="289.4551" y1="292.8906" y2="292.8906"/><text fill="#000000" font-family="sans-serif" font-size="14" lengthAdjust="spacing" textLength="250.4551" x="29" y="284.5889">Definir par&#225;metros de la asignatura</text></g><g id="inicio.crear_plan_estudio"><rect fill="#FAF4B4" height="50" rx="12.5" ry="12.5" style="stroke:#C90000;stroke-width:0.5;" width="171.1699" x="68.64" y="352.5938"/><line style="stroke:#C90000;stroke-width:0.5;" x1="68.64" x2="239.8099" y1="378.8906" y2="378.8906"/><text fill="#000000" font-family="sans-serif" font-size="14" lengthAdjust="spacing" textLength="151.1699" x="78.64" y="370.5889">Crear plan de estudio</text></g><g id="elem_GMN10"><path d="M307.3,271.4638 L307.3,287.5938 L289.85,291.5938 L307.3,295.5938 L307.3,311.7294 A0,0 0 0 0 307.3,311.7294 L621.1555,311.7294 A0,0 0 0 0 621.1555,311.7294 L621.1555,281.4638 L611.1555,271.4638 L307.3,271.4638 A0,0 0 0 0 307.3,271.4638 " fill="#F5F5F5" style="stroke:#181818;stroke-width:0.5;"/><path d="M611.1555,271.4638 L611.1555,281.4638 L621.1555,281.4638 L611.1555,271.4638 " fill="#F5F5F5" style="stroke:#181818;stroke-width:0.5;"/><text fill="#000000" font-family="sans-serif" font-size="13" lengthAdjust="spacing" textLength="129.1367" x="313.3" y="288.5306">Coordinador define:</text><text fill="#000000" font-family="sans-serif" font-size="13" lengthAdjust="spacing" textLength="292.8555" x="313.3" y="303.6635">- Contenidos y evaluaciones de la asignatura</text></g><g id="inicio.confirmar_creacion"><rect fill="#FAF4B4" height="50" rx="12.5" ry="12.5" style="stroke:#C90000;stroke-width:0.5;" width="153.8818" x="77.29" y="438.5938"/><line style="stroke:#C90000;stroke-width:0.5;" x1="77.29" x2="231.1718" y1="464.8906" y2="464.8906"/><text fill="#000000" font-family="sans-serif" font-size="14" lengthAdjust="spacing" textLength="133.8818" x="87.29" y="456.5889">Confirmar creaci&#243;n</text></g><g id="elem_GMN15"><path d="M257.81,357.4638 L257.81,373.5938 L240.24,377.5938 L257.81,381.5938 L257.81,397.7294 A0,0 0 0 0 257.81,397.7294 L454.6528,397.7294 A0,0 0 0 0 454.6528,397.7294 L454.6528,367.4638 L444.6528,357.4638 L257.81,357.4638 A0,0 0 0 0 257.81,357.4638 " fill="#F5F5F5" style="stroke:#181818;stroke-width:0.5;"/><path d="M444.6528,357.4638 L444.6528,367.4638 L454.6528,367.4638 L444.6528,357.4638 " fill="#F5F5F5" style="stroke:#181818;stroke-width:0.5;"/><text fill="#000000" font-family="sans-serif" font-size="13" lengthAdjust="spacing" textLength="145.9644" x="263.81" y="374.5306">Coordinador confirma:</text><text fill="#000000" font-family="sans-serif" font-size="13" lengthAdjust="spacing" textLength="175.8428" x="263.81" y="389.6635">- Creaci&#243;n de la asignatura</text></g><ellipse cx="154.23" cy="535.5938" fill="none" rx="11" ry="11" style="stroke:#222222;stroke-width:1.0;"/><ellipse cx="154.23" cy="535.5938" fill="#222222" rx="6" ry="6" style="stroke:#222222;stroke-width:1.0;"/><g id="elem_GMN20"><path d="M248.85,451.0238 L248.85,459.5938 L231.39,463.5938 L248.85,467.5938 L248.85,476.1566 A0,0 0 0 0 248.85,476.1566 L723.6059,476.1566 A0,0 0 0 0 723.6059,476.1566 L723.6059,461.0238 L713.6059,451.0238 L248.85,451.0238 A0,0 0 0 0 248.85,451.0238 " fill="#F5F5F5" style="stroke:#181818;stroke-width:0.5;"/><path d="M713.6059,451.0238 L713.6059,461.0238 L723.6059,461.0238 L713.6059,451.0238 " fill="#F5F5F5" style="stroke:#181818;stroke-width:0.5;"/><text fill="#000000" font-family="sans-serif" font-size="13" lengthAdjust="spacing" textLength="453.7559" x="254.85" y="468.0906">Asignatura creada y lista para ser incluida en el programa acad&#233;mico</text></g><!--link *start*inicio to definir_parametros_asignatura--><g id="link_*start*inicio_definir_parametros_asignatura"><path d="M154.23,230.9038 C154.23,239.9438 154.23,248.0838 154.23,260.3238 " fill="none" id="*start*inicio-to-definir_parametros_asignatura" style="stroke:#181818;stroke-width:1.0;"/><polygon fill="#181818" points="154.23,266.3238,158.23,257.3238,154.23,261.3238,150.23,257.3238,154.23,266.3238" style="stroke:#181818;stroke-width:1.0;"/></g><!--link definir_parametros_asignatura to crear_plan_estudio--><g id="link_definir_parametros_asignatura_crear_plan_estudio"><path d="M154.23,316.8938 C154.23,328.0338 154.23,335.2138 154.23,346.3538 " fill="none" id="definir_parametros_asignatura-to-crear_plan_estudio" style="stroke:#181818;stroke-width:1.0;"/><polygon fill="#181818" points="154.23,352.3538,158.23,343.3538,154.23,347.3538,150.23,343.3538,154.23,352.3538" style="stroke:#181818;stroke-width:1.0;"/></g><!--link crear_plan_estudio to confirmar_creacion--><g id="link_crear_plan_estudio_confirmar_creacion"><path d="M154.23,402.8938 C154.23,414.0338 154.23,421.2138 154.23,432.3538 " fill="none" id="crear_plan_estudio-to-confirmar_creacion" style="stroke:#181818;stroke-width:1.0;"/><polygon fill="#181818" points="154.23,438.3538,158.23,429.3538,154.23,433.3538,150.23,429.3538,154.23,438.3538" style="stroke:#181818;stroke-width:1.0;"/></g><!--link confirmar_creacion to *end*inicio--><g id="link_confirmar_creacion_*end*inicio"><path d="M154.23,489.0738 C154.23,501.0638 154.23,508.8638 154.23,518.0938 " fill="none" id="confirmar_creacion-to-*end*inicio" style="stroke:#181818;stroke-width:1.0;"/><polygon fill="#181818" points="154.23,524.0938,158.23,515.0938,154.23,519.0938,150.23,515.0938,154.23,524.0938" style="stroke:#181818;stroke-width:1.0;"/></g><!--link *start* to inicio--><g id="link_*start*_inicio"><path d="M369.8,63.5669 C369.8,81.8269 369.8,118.8969 369.8,166.8769 " fill="none" id="*start*-to-inicio" style="stroke:#181818;stroke-width:1.0;"/><polygon fill="#181818" points="369.8,172.8769,373.8,163.8769,369.8,167.8769,365.8,163.8769,369.8,172.8769" style="stroke:#181818;stroke-width:1.0;"/><path d="M374.8,98.2969 L374.8,138.2969 L628.8,138.2969 L628.8,108.2969 L618.8,98.2969 L374.8,98.2969 " fill="#F5F5F5" style="stroke:#181818;stroke-width:0.5;"/><path d="M618.8,98.2969 L618.8,108.2969 L628.8,108.2969 L618.8,98.2969 " fill="#F5F5F5" style="stroke:#181818;stroke-width:0.5;"/><text fill="#000000" font-family="sans-serif" font-size="13" lengthAdjust="spacing" textLength="197.4883" x="380.8" y="115.3638">Coordinador acad&#233;mico inicia:</text><text fill="#000000" font-family="sans-serif" font-size="13" lengthAdjust="spacing" textLength="233.7271" x="380.8" y="130.4966">- Proceso de creaci&#243;n de asignatura</text></g><!--SRC=[ZLFDJiCm3BxtAQnnGwh4OHpO0Gd60t3XXD1a4dT4o-mfJP4GsiDmvCmZxCLmalrqwlXf3wrinz-FdNRXU8K1bz16Z0Jl5S0jciKyICTsAbu2d3NOZ9_7AIF1KjX6pTM5FjMwgjfz4vOVUrocDrL75pt155i1I_2WdngcWT2upHUdq4thveon2rXLZ-TFKDVNuDWP9rNkBmpUyK9HfgA47ADL13HeDvzBPwGKuqGBQhWFOgX0cJu87a28RIQkGh871IlBsC5RQZGQPbabnI3jhDS0jkQDxaePQDdcezGbB8yzk97-_z5F6_vQa2abDPhto3DgOsVL7IZ-1pT_YI3DdwoF3SpLDCbndOXm97PM5Rm1lQBlr3jX6WhI0mS7zrQaYQeHIYyTs3BCsayGrsF3Q54ftBYmr5IPdl10vKaZZgNjkkp5zJVXFs9sB0uxLAISOZSCPYMwIaFgfyv3xm9aF8iw0k-KIreiX9Q2xgZndTCCCP27LP2vpXXxjw2lPFqD]--></g></svg>