<svg xmlns="http://www.w3.org/2000/svg" xmlns:xlink="http://www.w3.org/1999/xlink" contentStyleType="text/css" height="1087px" preserveAspectRatio="none" style="width:577px;height:1087px;background:#FFFFFF;" version="1.1" viewBox="0 0 577 1087" width="577px" zoomAndPan="magnify"><defs/><g><text fill="#000000" font-family="sans-serif" font-size="14" font-weight="bold" lengthAdjust="spacing" textLength="549" x="10" y="22.9951">Caso de Uso Selecci&#243;n de Docentes para Asignaturas - TimeGuardian</text><g id="INICIO"><rect fill="#FAF4B4" height="50" rx="12.5" ry="12.5" style="stroke:#C90000;stroke-width:0.5;" width="60" x="234.875" y="44.2969"/><line style="stroke:#C90000;stroke-width:0.5;" x1="234.875" x2="294.875" y1="70.5938" y2="70.5938"/><text fill="#000000" font-family="sans-serif" font-size="14" lengthAdjust="spacing" textLength="40" x="244.875" y="62.292">INICIO</text></g><path d="M52.625,204.2969 L477.125,204.2969 A12.5,12.5 0 0 1 489.625,216.7969 L489.625,230.5938 L40.125,230.5938 L40.125,216.7969 A12.5,12.5 0 0 1 52.625,204.2969 " fill="#FAF4B4" style="stroke:#FAF4B4;stroke-width:1.0;"/><rect fill="none" height="655.2969" rx="12.5" ry="12.5" style="stroke:#C90000;stroke-width:0.5;" width="449.5" x="40.125" y="204.2969"/><line style="stroke:#C90000;stroke-width:0.5;" x1="40.125" x2="489.625" y1="230.5938" y2="230.5938"/><text fill="#000000" font-family="sans-serif" font-size="14" lengthAdjust="spacing" textLength="182" x="173.875" y="222.292">selecci&#243;n_para_asignatura</text><g id="selecci&#243;n_para_asignatura.A"><rect fill="#FAF4B4" height="50" rx="12.5" ry="12.5" style="stroke:#C90000;stroke-width:0.5;" width="253" x="52.125" y="298.5938"/><line style="stroke:#C90000;stroke-width:0.5;" x1="52.125" x2="305.125" y1="324.8906" y2="324.8906"/><text fill="#000000" font-family="sans-serif" font-size="14" lengthAdjust="spacing" textLength="233" x="62.125" y="316.5889">Identificar asignaturas disponibles</text></g><g id="selecci&#243;n_para_asignatura.B"><rect fill="#FAF4B4" height="50" rx="12.5" ry="12.5" style="stroke:#C90000;stroke-width:0.5;" width="193" x="82.125" y="434.5938"/><line style="stroke:#C90000;stroke-width:0.5;" x1="82.125" x2="275.125" y1="460.8906" y2="460.8906"/><text fill="#000000" font-family="sans-serif" font-size="14" lengthAdjust="spacing" textLength="173" x="92.125" y="452.5889">Evaluar perfiles docentes</text></g><g id="selecci&#243;n_para_asignatura.C"><rect fill="#FAF4B4" height="50" rx="12.5" ry="12.5" style="stroke:#C90000;stroke-width:0.5;" width="237" x="60.125" y="570.5938"/><line style="stroke:#C90000;stroke-width:0.5;" x1="60.125" x2="297.125" y1="596.8906" y2="596.8906"/><text fill="#000000" font-family="sans-serif" font-size="14" lengthAdjust="spacing" textLength="217" x="70.125" y="588.5889">Asignar docentes a asignaturas</text></g><g id="selecci&#243;n_para_asignatura.D"><rect fill="#FAF4B4" height="50" rx="12.5" ry="12.5" style="stroke:#C90000;stroke-width:0.5;" width="181" x="88.125" y="706.5938"/><line style="stroke:#C90000;stroke-width:0.5;" x1="88.125" x2="269.125" y1="732.8906" y2="732.8906"/><text fill="#000000" font-family="sans-serif" font-size="14" lengthAdjust="spacing" textLength="161" x="98.125" y="724.5889">Confirmar asignaciones</text></g><ellipse cx="178.625" cy="251.5938" fill="#222222" rx="10" ry="10" style="stroke:#222222;stroke-width:1.0;"/><ellipse cx="178.625" cy="838.5938" fill="none" rx="11" ry="11" style="stroke:#222222;stroke-width:1.0;"/><ellipse cx="178.625" cy="838.5938" fill="#222222" rx="6" ry="6" style="stroke:#222222;stroke-width:1.0;"/><!--link *start*selecci?n_para_asignatura to A--><g id="link_*start*selecci&#243;n_para_asignatura_A"><path d="M178.625,262.0338 C178.625,271.2938 178.625,279.7838 178.625,292.2737 " fill="none" id="*start*selecci&#243;n_para_asignatura-to-A" style="stroke:#C90000;stroke-width:1.0;"/><polygon fill="#C90000" points="178.625,298.2737,182.625,289.2737,178.625,293.2737,174.625,289.2737,178.625,298.2737" style="stroke:#C90000;stroke-width:1.0;"/></g><!--link A to B--><g id="link_A_B"><path d="M178.625,348.8638 C178.625,373.1438 178.625,404.2838 178.625,428.5038 " fill="none" id="A-to-B" style="stroke:#C90000;stroke-width:1.0;"/><polygon fill="#C90000" points="178.625,434.5038,182.625,425.5038,178.625,429.5038,174.625,425.5038,178.625,434.5038" style="stroke:#C90000;stroke-width:1.0;"/><path d="M183.625,371.5938 L183.625,411.5938 L445.625,411.5938 L445.625,381.5938 L435.625,371.5938 L183.625,371.5938 " fill="#F5F5F5" style="stroke:#181818;stroke-width:0.5;"/><path d="M435.625,371.5938 L435.625,381.5938 L445.625,381.5938 L435.625,371.5938 " fill="#F5F5F5" style="stroke:#181818;stroke-width:0.5;"/><text fill="#000000" font-family="sans-serif" font-size="13" font-weight="bold" lengthAdjust="spacing" textLength="170" x="189.625" y="388.6606">Coordinador identifica:</text><text fill="#000000" font-family="sans-serif" font-size="13" lengthAdjust="spacing" textLength="241" x="189.625" y="403.7935">- Asignaturas que requieren docentes</text></g><!--link B to C--><g id="link_B_C"><path d="M178.625,484.8638 C178.625,509.1438 178.625,540.2838 178.625,564.5038 " fill="none" id="B-to-C" style="stroke:#C90000;stroke-width:1.0;"/><polygon fill="#C90000" points="178.625,570.5038,182.625,561.5038,178.625,565.5038,174.625,561.5038,178.625,570.5038" style="stroke:#C90000;stroke-width:1.0;"/><path d="M183.625,507.5938 L183.625,547.5938 L480.625,547.5938 L480.625,517.5938 L470.625,507.5938 L183.625,507.5938 " fill="#F5F5F5" style="stroke:#181818;stroke-width:0.5;"/><path d="M470.625,507.5938 L470.625,517.5938 L480.625,517.5938 L470.625,507.5938 " fill="#F5F5F5" style="stroke:#181818;stroke-width:0.5;"/><text fill="#000000" font-family="sans-serif" font-size="13" font-weight="bold" lengthAdjust="spacing" textLength="149" x="189.625" y="524.6606">Coordinador eval&#250;a:</text><text fill="#000000" font-family="sans-serif" font-size="13" lengthAdjust="spacing" textLength="276" x="189.625" y="539.7935">- Experiencia y especializaci&#243;n de docentes</text></g><!--link C to D--><g id="link_C_D"><path d="M178.625,620.8638 C178.625,645.1438 178.625,676.2838 178.625,700.5038 " fill="none" id="C-to-D" style="stroke:#C90000;stroke-width:1.0;"/><polygon fill="#C90000" points="178.625,706.5038,182.625,697.5038,178.625,701.5038,174.625,697.5038,178.625,706.5038" style="stroke:#C90000;stroke-width:1.0;"/><path d="M183.625,643.5938 L183.625,683.5938 L439.625,683.5938 L439.625,653.5938 L429.625,643.5938 L183.625,643.5938 " fill="#F5F5F5" style="stroke:#181818;stroke-width:0.5;"/><path d="M429.625,643.5938 L429.625,653.5938 L439.625,653.5938 L429.625,643.5938 " fill="#F5F5F5" style="stroke:#181818;stroke-width:0.5;"/><text fill="#000000" font-family="sans-serif" font-size="13" font-weight="bold" lengthAdjust="spacing" textLength="150" x="189.625" y="660.6606">Coordinador asigna:</text><text fill="#000000" font-family="sans-serif" font-size="13" lengthAdjust="spacing" textLength="235" x="189.625" y="675.7935">- Docentes a asignaturas espec&#237;ficas</text></g><!--link D to *end*selecci?n_para_asignatura--><g id="link_D_*end*selecci&#243;n_para_asignatura"><path d="M178.625,756.9438 C178.625,779.2438 178.625,805.1538 178.625,821.3338 " fill="none" id="D-to-*end*selecci&#243;n_para_asignatura" style="stroke:#008000;stroke-width:1.0;"/><polygon fill="#008000" points="178.625,827.3338,182.625,818.3338,178.625,822.3338,174.625,818.3338,178.625,827.3338" style="stroke:#008000;stroke-width:1.0;"/><path d="M183.625,779.5938 L183.625,804.5938 L384.625,804.5938 L384.625,789.5938 L374.625,779.5938 L183.625,779.5938 " fill="#F5F5F5" style="stroke:#181818;stroke-width:0.5;"/><path d="M374.625,779.5938 L374.625,789.5938 L384.625,789.5938 L374.625,779.5938 " fill="#F5F5F5" style="stroke:#181818;stroke-width:0.5;"/><text fill="#000000" font-family="sans-serif" font-size="13" lengthAdjust="spacing" textLength="180" x="189.625" y="796.6606">[asignaciones completadas]</text></g><g id=":mostrarAsignacionesFinalizadas"><rect fill="#FAF4B4" height="50" rx="12.5" ry="12.5" style="stroke:#C90000;stroke-width:0.5;" width="245" x="142.375" y="920.5969"/><line style="stroke:#C90000;stroke-width:0.5;" x1="142.375" x2="387.375" y1="946.8938" y2="946.8938"/><text fill="#000000" font-family="sans-serif" font-size="14" lengthAdjust="spacing" textLength="225" x="152.375" y="938.592">:mostrarAsignacionesFinalizadas</text></g><g id="ASIGNACIONES_COMPLETADAS"><rect fill="#FAF4B4" height="50" rx="12.5" ry="12.5" style="stroke:#C90000;stroke-width:0.5;" width="235" x="147.375" y="1031.5969"/><line style="stroke:#C90000;stroke-width:0.5;" x1="147.375" x2="382.375" y1="1057.8938" y2="1057.8938"/><text fill="#000000" font-family="sans-serif" font-size="14" lengthAdjust="spacing" textLength="215" x="157.375" y="1049.592">ASIGNACIONES_COMPLETADAS</text></g><!--link INICIO to selecci?n_para_asignatura--><g id="link_INICIO_selecci&#243;n_para_asignatura"><path d="M264.875,94.7369 C264.875,118.6869 264.875,152.1769 264.875,197.8769 " fill="none" id="INICIO-to-selecci&#243;n_para_asignatura" style="stroke:#C90000;stroke-width:1.0;"/><polygon fill="#C90000" points="264.875,203.8769,268.875,194.8769,264.875,198.8769,260.875,194.8769,264.875,203.8769" style="stroke:#C90000;stroke-width:1.0;"/><path d="M269.875,129.2969 L269.875,169.2969 L542.875,169.2969 L542.875,139.2969 L532.875,129.2969 L269.875,129.2969 " fill="#F5F5F5" style="stroke:#181818;stroke-width:0.5;"/><path d="M532.875,129.2969 L532.875,139.2969 L542.875,139.2969 L532.875,129.2969 " fill="#F5F5F5" style="stroke:#181818;stroke-width:0.5;"/><text fill="#000000" font-family="sans-serif" font-size="13" font-weight="bold" lengthAdjust="spacing" textLength="224" x="275.875" y="146.3638">Coordinador acad&#233;mico inicia:</text><text fill="#000000" font-family="sans-serif" font-size="13" lengthAdjust="spacing" textLength="252" x="275.875" y="161.4966">- Asignaci&#243;n de docentes a asignaturas</text></g><!--link selecci?n_para_asignatura to :mostrarAsignacionesFinalizadas--><g id="link_selecci&#243;n_para_asignatura_:mostrarAsignacionesFinalizadas"><path d="M264.875,859.8069 C264.875,884.2669 264.875,899.1869 264.875,914.1269 " fill="none" id="selecci&#243;n_para_asignatura-to-:mostrarAsignacionesFinalizadas" style="stroke:#C90000;stroke-width:1.0;"/><polygon fill="#C90000" points="264.875,920.1269,268.875,911.1269,264.875,915.1269,260.875,911.1269,264.875,920.1269" style="stroke:#C90000;stroke-width:1.0;"/></g><!--link :mostrarAsignacionesFinalizadas to ASIGNACIONES_COMPLETADAS--><g id="link_:mostrarAsignacionesFinalizadas_ASIGNACIONES_COMPLETADAS"><path d="M264.875,971.0569 C264.875,989.0069 264.875,1007.2869 264.875,1025.2169 " fill="none" id=":mostrarAsignacionesFinalizadas-to-ASIGNACIONES_COMPLETADAS" style="stroke:#C90000;stroke-width:1.0;"/><polygon fill="#C90000" points="264.875,1031.2169,268.875,1022.2169,264.875,1026.2169,260.875,1022.2169,264.875,1031.2169" style="stroke:#C90000;stroke-width:1.0;"/></g><!--SRC=[XLF1Rjf04BtlLuoI6vAb7X95pQ6IOzC8gIMLe2U4q6HtG2FiNMVNLA5LFwY7ddhhbH_hh246Kn3h0sRsxNjltgp3acs57ai8DTO4FnJ00-hbmhkLDPahd8VhESvldc_YZlE6_Awgtx-J9TKnlTQxsjrjVDHFfK9BRDrPtjluN6Oes5AzhWWgLwpZ7wLghWk238C3G_1LVaPKaDQy-MDZ9NUQR4q18WEaWHSMwvN700cCkQJ75Nh3Q9KQ30VPu0cIoQwXQV81GiirY-Tds9vNJJVEHazBSTxhPKv2OOj6tAD6i_bLidR0bZNZVQyde6Hde7LdtjmXxAc38ckQjAJtPXZdRJHvRa5N0oDSF6UD_f0D38VAMNukA5p91gJx8_rlM4W0K96Vi-otXXhWmnwuzUtF66xGsHwTEJjdNxO-D3kxuyoLm2QzQJVdQ2djbgBuKSPnTNFcjkLjm74bdIc_h0WylQoOFDdMla3RZEK-TfMpKyfTNPBSDdzRqGJwhn8XavLHmneeL2Hl1N__VzHTwQmhdL-MtYQwLyvFJcHhOVCxHdCacKV9XIUoKL56SKfpSZWuqAwi2ghHO9WUaiMFy_pLx7HsNxfGU_Jf0Uz7QIbc9BHANG0StPVHu76OokSwx8zcsTFdBv_wupHFH_y0]--></g></svg>