<svg xmlns="http://www.w3.org/2000/svg" xmlns:xlink="http://www.w3.org/1999/xlink" contentStyleType="text/css" height="476px" preserveAspectRatio="none" style="width:789px;height:476px;background:#FFFFFF;" version="1.1" viewBox="0 0 789 476" width="789px" zoomAndPan="magnify"><defs/><g><text fill="#000000" font-family="sans-serif" font-size="14" font-weight="bold" lengthAdjust="spacing" textLength="299.6191" x="234.7849" y="22.9951">Caso de Uso - Verificaci&#243;n de Docente</text><ellipse cx="391.59" cy="53.2969" fill="#222222" rx="10" ry="10" style="stroke:#222222;stroke-width:1.0;"/><path d="M19.5,173.2969 L763.6889,173.2969 A12.5,12.5 0 0 1 776.1889,185.7969 L776.1889,199.5938 L7,199.5938 L7,185.7969 A12.5,12.5 0 0 1 19.5,173.2969 " fill="#FAF4B4" style="stroke:#FAF4B4;stroke-width:1.0;"/><rect fill="none" height="297.2969" rx="12.5" ry="12.5" style="stroke:#C90000;stroke-width:0.5;" width="769.1889" x="7" y="173.2969"/><line style="stroke:#C90000;stroke-width:0.5;" x1="7" x2="776.1889" y1="199.5938" y2="199.5938"/><text fill="#000000" font-family="sans-serif" font-size="14" lengthAdjust="spacing" textLength="36.8047" x="373.1921" y="191.292">inicio</text><ellipse cx="207.73" cy="220.5938" fill="#222222" rx="10" ry="10" style="stroke:#222222;stroke-width:1.0;"/><g id="inicio.revisar_documentacion"><rect fill="#FAF4B4" height="50" rx="12.5" ry="12.5" style="stroke:#C90000;stroke-width:0.5;" width="377.4512" x="19" y="266.5938"/><line style="stroke:#C90000;stroke-width:0.5;" x1="19" x2="396.4512" y1="292.8906" y2="292.8906"/><text fill="#000000" font-family="sans-serif" font-size="14" lengthAdjust="spacing" textLength="357.4512" x="29" y="284.5889">Revisar documentaci&#243;n y credenciales del docente</text></g><g id="inicio.confirmar_verificacion"><rect fill="#FAF4B4" height="50" rx="12.5" ry="12.5" style="stroke:#C90000;stroke-width:0.5;" width="174.875" x="120.29" y="352.5938"/><line style="stroke:#C90000;stroke-width:0.5;" x1="120.29" x2="295.165" y1="378.8906" y2="378.8906"/><text fill="#000000" font-family="sans-serif" font-size="14" lengthAdjust="spacing" textLength="154.875" x="130.29" y="370.5889">Confirmar verificaci&#243;n</text></g><g id="elem_GMN10"><path d="M414.27,279.0238 L414.27,287.5938 L396.61,291.5938 L414.27,295.5938 L414.27,304.1566 A0,0 0 0 0 414.27,304.1566 L767.1889,304.1566 A0,0 0 0 0 767.1889,304.1566 L767.1889,289.0238 L757.1889,279.0238 L414.27,279.0238 A0,0 0 0 0 414.27,279.0238 " fill="#F5F5F5" style="stroke:#181818;stroke-width:0.5;"/><path d="M757.1889,279.0238 L757.1889,289.0238 L767.1889,289.0238 L757.1889,279.0238 " fill="#F5F5F5" style="stroke:#181818;stroke-width:0.5;"/><text fill="#000000" font-family="sans-serif" font-size="13" lengthAdjust="spacing" textLength="331.9189" x="420.27" y="296.0906">Revisar documentaci&#243;n y credenciales del docente</text></g><ellipse cx="207.73" cy="449.5938" fill="none" rx="11" ry="11" style="stroke:#222222;stroke-width:1.0;"/><ellipse cx="207.73" cy="449.5938" fill="#222222" rx="6" ry="6" style="stroke:#222222;stroke-width:1.0;"/><g id="elem_GMN15"><path d="M313.06,357.4638 L313.06,373.5938 L295.3,377.5938 L313.06,381.5938 L313.06,397.7294 A0,0 0 0 0 313.06,397.7294 L574.395,397.7294 A0,0 0 0 0 574.395,397.7294 L574.395,367.4638 L564.395,357.4638 L313.06,357.4638 A0,0 0 0 0 313.06,357.4638 " fill="#F5F5F5" style="stroke:#181818;stroke-width:0.5;"/><path d="M564.395,357.4638 L564.395,367.4638 L574.395,367.4638 L564.395,357.4638 " fill="#F5F5F5" style="stroke:#181818;stroke-width:0.5;"/><text fill="#000000" font-family="sans-serif" font-size="13" lengthAdjust="spacing" textLength="215.9536" x="319.06" y="374.5306">Docente verificado exitosamente</text><text fill="#000000" font-family="sans-serif" font-size="13" lengthAdjust="spacing" textLength="240.335" x="319.06" y="389.6635">Confirmar la verificaci&#243;n del docente</text></g><!--link *start*inicio to revisar_documentacion--><g id="link_*start*inicio_revisar_documentacion"><path d="M207.73,230.9038 C207.73,239.9438 207.73,248.0838 207.73,260.3238 " fill="none" id="*start*inicio-to-revisar_documentacion" style="stroke:#181818;stroke-width:1.0;"/><polygon fill="#181818" points="207.73,266.3238,211.73,257.3238,207.73,261.3238,203.73,257.3238,207.73,266.3238" style="stroke:#181818;stroke-width:1.0;"/></g><!--link revisar_documentacion to confirmar_verificacion--><g id="link_revisar_documentacion_confirmar_verificacion"><path d="M207.73,316.8938 C207.73,328.0338 207.73,335.2138 207.73,346.3538 " fill="none" id="revisar_documentacion-to-confirmar_verificacion" style="stroke:#181818;stroke-width:1.0;"/><polygon fill="#181818" points="207.73,352.3538,211.73,343.3538,207.73,347.3538,203.73,343.3538,207.73,352.3538" style="stroke:#181818;stroke-width:1.0;"/></g><!--link confirmar_verificacion to *end*inicio--><g id="link_confirmar_verificacion_*end*inicio"><path d="M207.73,403.0738 C207.73,415.0638 207.73,422.8638 207.73,432.0938 " fill="none" id="confirmar_verificacion-to-*end*inicio" style="stroke:#181818;stroke-width:1.0;"/><polygon fill="#181818" points="207.73,438.0938,211.73,429.0938,207.73,433.0938,203.73,429.0938,207.73,438.0938" style="stroke:#181818;stroke-width:1.0;"/></g><!--link *start* to inicio--><g id="link_*start*_inicio"><path d="M391.59,63.7869 C391.59,82.5269 391.59,120.5069 391.59,166.8969 " fill="none" id="*start*-to-inicio" style="stroke:#181818;stroke-width:1.0;"/><polygon fill="#181818" points="391.59,172.8969,395.59,163.8969,391.59,167.8969,387.59,163.8969,391.59,172.8969" style="stroke:#181818;stroke-width:1.0;"/><path d="M396.59,98.2969 L396.59,138.2969 L653.59,138.2969 L653.59,108.2969 L643.59,98.2969 L396.59,98.2969 " fill="#F5F5F5" style="stroke:#181818;stroke-width:0.5;"/><path d="M643.59,98.2969 L643.59,108.2969 L653.59,108.2969 L643.59,98.2969 " fill="#F5F5F5" style="stroke:#181818;stroke-width:0.5;"/><text fill="#000000" font-family="sans-serif" font-size="13" lengthAdjust="spacing" textLength="197.4883" x="402.59" y="115.3638">Coordinador acad&#233;mico inicia:</text><text fill="#000000" font-family="sans-serif" font-size="13" lengthAdjust="spacing" textLength="236.4502" x="402.59" y="130.4966">- Proceso de verificaci&#243;n de docente</text></g><!--SRC=[bLAzJiCm4Dxz52VOa28nj48mC10U025WGGWTzgMSclYGxLP5g0_4p2FqnRWuIGkq6R07I_Vvlf-puvpz6mPi82PC11y6u0hjV1PauLqfjGGuhh2Ql4nQH8AZq5Vj-QakhTxHAlMriscxpTgOk2NsCiexRVSOG-9K4vGO1Hp1lHu5F53WYYrQtdpvjdmjbdmYOnvFdg0eBe4zMnQJHSL3pNwk0gMeS_ReL08jkirdmrQwotYX5mgu2KhLQIt_ghXUXRpBSJHUdbOdbiCD-e6M734yQykYqIOb4Qzurt1qsy7m0surti46SkJLJKrH9Uj1ymWmZf0gwq4W-x3YAmwDOhiqsKYUJE3PQmAfHkq2_DkfTktcimrS3Zv-JpN76lLu6CYvTCvx8KPvOFWVMt4dG2jE4h7fFRUVOx1OuzxR7uot_WO0]--></g></svg>