<svg xmlns="http://www.w3.org/2000/svg" xmlns:xlink="http://www.w3.org/1999/xlink" contentStyleType="text/css" height="734px" preserveAspectRatio="none" style="width:669px;height:734px;background:#FFFFFF;" version="1.1" viewBox="0 0 669 734" width="669px" zoomAndPan="magnify"><defs/><g><text fill="#000000" font-family="sans-serif" font-size="14" font-weight="bold" lengthAdjust="spacing" textLength="511.1504" x="68.6899" y="22.9951">Caso de Uso Administraci&#243;n de Horarios - Sistema TimeGuardian</text><ellipse cx="331.27" cy="53.2969" fill="#222222" rx="10" ry="10" style="stroke:#222222;stroke-width:1.0;"/><path d="M19.5,173.2969 L643.0302,173.2969 A12.5,12.5 0 0 1 655.5302,185.7969 L655.5302,199.5938 L7,199.5938 L7,185.7969 A12.5,12.5 0 0 1 19.5,173.2969 " fill="#FAF4B4" style="stroke:#FAF4B4;stroke-width:1.0;"/><rect fill="none" height="555.2969" rx="12.5" ry="12.5" style="stroke:#C90000;stroke-width:0.5;" width="648.5302" x="7" y="173.2969"/><line style="stroke:#C90000;stroke-width:0.5;" x1="7" x2="655.5302" y1="199.5938" y2="199.5938"/><text fill="#000000" font-family="sans-serif" font-size="14" lengthAdjust="spacing" textLength="94.1035" x="284.2133" y="191.292">iniciar_sesion</text><ellipse cx="170.83" cy="220.5938" fill="#222222" rx="10" ry="10" style="stroke:#222222;stroke-width:1.0;"/><g id="iniciar_sesion.mostrar_interfaz_principal"><rect fill="#FAF4B4" height="50" rx="12.5" ry="12.5" style="stroke:#C90000;stroke-width:0.5;" width="213.1631" x="64.25" y="266.5938"/><line style="stroke:#C90000;stroke-width:0.5;" x1="64.25" x2="277.4131" y1="292.8906" y2="292.8906"/><text fill="#000000" font-family="sans-serif" font-size="14" lengthAdjust="spacing" textLength="193.1631" x="74.25" y="284.5889">Mostrar la interfaz principal</text></g><g id="iniciar_sesion.seleccionar_visualizaci&#243;n_asignaturas"><rect fill="#FAF4B4" height="50" rx="12.5" ry="12.5" style="stroke:#C90000;stroke-width:0.5;" width="303.6572" x="19" y="352.5938"/><line style="stroke:#C90000;stroke-width:0.5;" x1="19" x2="322.6572" y1="378.8906" y2="378.8906"/><text fill="#000000" font-family="sans-serif" font-size="14" lengthAdjust="spacing" textLength="283.6572" x="29" y="370.5889">Seleccionar visualizaci&#243;n de asignaturas</text></g><g id="elem_GMN10"><path d="M295.7,271.4638 L295.7,287.5938 L277.76,291.5938 L295.7,295.5938 L295.7,311.7294 A0,0 0 0 0 295.7,311.7294 L645.9656,311.7294 A0,0 0 0 0 645.9656,311.7294 L645.9656,281.4638 L635.9656,271.4638 L295.7,271.4638 A0,0 0 0 0 295.7,271.4638 " fill="#F5F5F5" style="stroke:#181818;stroke-width:0.5;"/><path d="M635.9656,271.4638 L635.9656,281.4638 L645.9656,281.4638 L635.9656,271.4638 " fill="#F5F5F5" style="stroke:#181818;stroke-width:0.5;"/><text fill="#000000" font-family="sans-serif" font-size="13" lengthAdjust="spacing" textLength="168.9619" x="301.7" y="288.5306">Administrador selecciona:</text><text fill="#000000" font-family="sans-serif" font-size="13" lengthAdjust="spacing" textLength="329.2656" x="301.7" y="303.6635">- Visualizar asignaturas ofrecidas para una carrera</text></g><g id="iniciar_sesion.mostrar_asignaturas_ofrecidas"><rect fill="#FAF4B4" height="50" rx="12.5" ry="12.5" style="stroke:#C90000;stroke-width:0.5;" width="228.7217" x="56.47" y="438.5938"/><line style="stroke:#C90000;stroke-width:0.5;" x1="56.47" x2="285.1917" y1="464.8906" y2="464.8906"/><text fill="#000000" font-family="sans-serif" font-size="14" lengthAdjust="spacing" textLength="208.7217" x="66.47" y="456.5889">Mostrar asignaturas ofrecidas</text></g><g id="elem_GMN15"><path d="M303.12,451.0238 L303.12,459.5938 L285.42,463.5938 L303.12,467.5938 L303.12,476.1566 A0,0 0 0 0 303.12,476.1566 L646.5302,476.1566 A0,0 0 0 0 646.5302,476.1566 L646.5302,461.0238 L636.5302,451.0238 L303.12,451.0238 A0,0 0 0 0 303.12,451.0238 " fill="#F5F5F5" style="stroke:#181818;stroke-width:0.5;"/><path d="M636.5302,451.0238 L636.5302,461.0238 L646.5302,461.0238 L636.5302,451.0238 " fill="#F5F5F5" style="stroke:#181818;stroke-width:0.5;"/><text fill="#000000" font-family="sans-serif" font-size="13" lengthAdjust="spacing" textLength="322.4102" x="309.12" y="468.0906">Muestra asignaturas para la carrera seleccionada</text></g><g id="iniciar_sesion.arrastrar_soltar_asignaturas"><rect fill="#FAF4B4" height="50" rx="12.5" ry="12.5" style="stroke:#C90000;stroke-width:0.5;" width="225.8438" x="57.91" y="524.5938"/><line style="stroke:#C90000;stroke-width:0.5;" x1="57.91" x2="283.7537" y1="550.8906" y2="550.8906"/><text fill="#000000" font-family="sans-serif" font-size="14" lengthAdjust="spacing" textLength="205.8438" x="67.91" y="542.5889">Arrastrar y soltar asignaturas</text></g><g id="elem_GMN20"><path d="M301.38,529.4638 L301.38,545.5938 L284.24,549.5938 L301.38,553.5938 L301.38,569.7294 A0,0 0 0 0 301.38,569.7294 L628.2736,569.7294 A0,0 0 0 0 628.2736,569.7294 L628.2736,539.4638 L618.2736,529.4638 L301.38,529.4638 A0,0 0 0 0 301.38,529.4638 " fill="#F5F5F5" style="stroke:#181818;stroke-width:0.5;"/><path d="M618.2736,529.4638 L618.2736,539.4638 L628.2736,539.4638 L618.2736,529.4638 " fill="#F5F5F5" style="stroke:#181818;stroke-width:0.5;"/><text fill="#000000" font-family="sans-serif" font-size="13" lengthAdjust="spacing" textLength="143.8379" x="307.38" y="546.5306">Administrador realiza:</text><text fill="#000000" font-family="sans-serif" font-size="13" lengthAdjust="spacing" textLength="305.8936" x="307.38" y="561.6635">- Arrastra y suelta asignaturas en el calendario</text></g><g id="iniciar_sesion.guardar_cambios"><rect fill="#FAF4B4" height="50" rx="12.5" ry="12.5" style="stroke:#C90000;stroke-width:0.5;" width="140.2783" x="100.69" y="610.5938"/><line style="stroke:#C90000;stroke-width:0.5;" x1="100.69" x2="240.9683" y1="636.8906" y2="636.8906"/><text fill="#000000" font-family="sans-serif" font-size="14" lengthAdjust="spacing" textLength="120.2783" x="110.69" y="628.5889">Guardar cambios</text></g><g id="elem_GMN25"><path d="M258.86,615.4638 L258.86,631.5938 L241.33,635.5938 L258.86,639.5938 L258.86,655.7294 A0,0 0 0 0 258.86,655.7294 L594.799,655.7294 A0,0 0 0 0 594.799,655.7294 L594.799,625.4638 L584.799,615.4638 L258.86,615.4638 A0,0 0 0 0 258.86,615.4638 " fill="#F5F5F5" style="stroke:#181818;stroke-width:0.5;"/><path d="M584.799,615.4638 L584.799,625.4638 L594.799,625.4638 L584.799,615.4638 " fill="#F5F5F5" style="stroke:#181818;stroke-width:0.5;"/><text fill="#000000" font-family="sans-serif" font-size="13" lengthAdjust="spacing" textLength="314.939" x="264.86" y="632.5306">- Guarda cambios y actualiza horario acad&#233;mico</text><text fill="#000000" font-family="sans-serif" font-size="13" lengthAdjust="spacing" textLength="201.5571" x="264.86" y="647.6635">Horario acad&#233;mico actualizado</text></g><ellipse cx="170.83" cy="707.5938" fill="none" rx="11" ry="11" style="stroke:#222222;stroke-width:1.0;"/><ellipse cx="170.83" cy="707.5938" fill="#222222" rx="6" ry="6" style="stroke:#222222;stroke-width:1.0;"/><!--link *start*iniciar_sesion to mostrar_interfaz_principal--><g id="link_*start*iniciar_sesion_mostrar_interfaz_principal"><path d="M170.83,230.9038 C170.83,239.9438 170.83,248.0838 170.83,260.3238 " fill="none" id="*start*iniciar_sesion-to-mostrar_interfaz_principal" style="stroke:#181818;stroke-width:1.0;"/><polygon fill="#181818" points="170.83,266.3238,174.83,257.3238,170.83,261.3238,166.83,257.3238,170.83,266.3238" style="stroke:#181818;stroke-width:1.0;"/></g><!--link mostrar_interfaz_principal to seleccionar_visualizaci?n_asignaturas--><g id="link_mostrar_interfaz_principal_seleccionar_visualizaci&#243;n_asignaturas"><path d="M170.83,316.8938 C170.83,328.0338 170.83,335.2138 170.83,346.3538 " fill="none" id="mostrar_interfaz_principal-to-seleccionar_visualizaci&#243;n_asignaturas" style="stroke:#181818;stroke-width:1.0;"/><polygon fill="#181818" points="170.83,352.3538,174.83,343.3538,170.83,347.3538,166.83,343.3538,170.83,352.3538" style="stroke:#181818;stroke-width:1.0;"/></g><!--link seleccionar_visualizaci?n_asignaturas to mostrar_asignaturas_ofrecidas--><g id="link_seleccionar_visualizaci&#243;n_asignaturas_mostrar_asignaturas_ofrecidas"><path d="M170.83,402.8938 C170.83,414.0338 170.83,421.2138 170.83,432.3538 " fill="none" id="seleccionar_visualizaci&#243;n_asignaturas-to-mostrar_asignaturas_ofrecidas" style="stroke:#181818;stroke-width:1.0;"/><polygon fill="#181818" points="170.83,438.3538,174.83,429.3538,170.83,433.3538,166.83,429.3538,170.83,438.3538" style="stroke:#181818;stroke-width:1.0;"/></g><!--link mostrar_asignaturas_ofrecidas to arrastrar_soltar_asignaturas--><g id="link_mostrar_asignaturas_ofrecidas_arrastrar_soltar_asignaturas"><path d="M170.83,488.8938 C170.83,500.0338 170.83,507.2138 170.83,518.3538 " fill="none" id="mostrar_asignaturas_ofrecidas-to-arrastrar_soltar_asignaturas" style="stroke:#181818;stroke-width:1.0;"/><polygon fill="#181818" points="170.83,524.3538,174.83,515.3538,170.83,519.3538,166.83,515.3538,170.83,524.3538" style="stroke:#181818;stroke-width:1.0;"/></g><!--link arrastrar_soltar_asignaturas to guardar_cambios--><g id="link_arrastrar_soltar_asignaturas_guardar_cambios"><path d="M170.83,574.8938 C170.83,586.0338 170.83,593.2138 170.83,604.3538 " fill="none" id="arrastrar_soltar_asignaturas-to-guardar_cambios" style="stroke:#181818;stroke-width:1.0;"/><polygon fill="#181818" points="170.83,610.3538,174.83,601.3538,170.83,605.3538,166.83,601.3538,170.83,610.3538" style="stroke:#181818;stroke-width:1.0;"/></g><!--link guardar_cambios to *end*iniciar_sesion--><g id="link_guardar_cambios_*end*iniciar_sesion"><path d="M170.83,661.0738 C170.83,673.0638 170.83,680.8638 170.83,690.0938 " fill="none" id="guardar_cambios-to-*end*iniciar_sesion" style="stroke:#181818;stroke-width:1.0;"/><polygon fill="#181818" points="170.83,696.0938,174.83,687.0938,170.83,691.0938,166.83,687.0938,170.83,696.0938" style="stroke:#181818;stroke-width:1.0;"/></g><!--link *start* to iniciar_sesion--><g id="link_*start*_iniciar_sesion"><path d="M331.27,63.6869 C331.27,81.5969 331.27,117.2869 331.27,166.9569 " fill="none" id="*start*-to-iniciar_sesion" style="stroke:#181818;stroke-width:1.0;"/><polygon fill="#181818" points="331.27,172.9569,335.27,163.9569,331.27,167.9569,327.27,163.9569,331.27,172.9569" style="stroke:#181818;stroke-width:1.0;"/><path d="M336.27,98.2969 L336.27,138.2969 L536.27,138.2969 L536.27,108.2969 L526.27,98.2969 L336.27,98.2969 " fill="#F5F5F5" style="stroke:#181818;stroke-width:0.5;"/><path d="M526.27,98.2969 L526.27,108.2969 L536.27,108.2969 L526.27,98.2969 " fill="#F5F5F5" style="stroke:#181818;stroke-width:0.5;"/><text fill="#000000" font-family="sans-serif" font-size="13" lengthAdjust="spacing" textLength="174.0845" x="342.27" y="115.3638">Administrador de horarios:</text><text fill="#000000" font-family="sans-serif" font-size="13" lengthAdjust="spacing" textLength="179.8418" x="342.27" y="130.4966">- Inicia sesi&#243;n en el sistema</text></g><!--SRC=[ZLJ1Rjim3BtxAuZkDi303jsXFGpeUcXxwAdTBiDWi9AI4f6bW987h4C_QETzGdzib1JRiTsaJG8u81yV-HvbXGsvBJAs42960tygWA-eDclsdTENtdg63ojSdJwSfendRNWNLMUVv5CzLrKOI9m_oF4vVHCwKhG6BZ5uq0Q-oUD2j-GeH4P5B_zS2bzxHYOVe8OxoPWMuPvQSzKXQq9NLJy-_eIw_W9Ig0Yv2IQGTrKUm3kmv3OoniYiPGZXVTpndakoXfjS3AaszJNoin1AlyeudVM8lcpDj5DMsG_H-jI26tBHy0gVcYsJKxH5Aw1IVN9RC60HUXWCi1F0S8n5Q0vdymZ1MAEK32QGNnGwjFHKx6mmqDfXx1Y3y6I7cDQF4Vpg-EHp_yOUvpbRm_U-4yDU5o5ceqZBltGie7C82faDezIDlWxUt8t3mtJujBCzvkpJEwKc-dSX9olSYpU3ZEKMNrKxsU8XejVzFuG6kErCWamwPbVjOEgUJZrt-6Y3h5mui622jt4A7OLVz2Zu3GMtsCiRH5FXRu3dHuzDtbr_xlffqZ2TaVg9FUKzLcZ5YFIspomvrZexiawtZCGLjWzoLumcN9K4x19PzH8y5RhC9m65gISI6QXYEPxz5IKHr2z_Mr8-rrmlmcEDdakSDSsgvBAgdly3]--></g></svg>