<svg xmlns="http://www.w3.org/2000/svg" xmlns:xlink="http://www.w3.org/1999/xlink" contentStyleType="text/css" height="981px" preserveAspectRatio="none" style="width:497px;height:981px;background:#FFFFFF;" version="1.1" viewBox="0 0 497 981" width="497px" zoomAndPan="magnify"><defs/><g><text fill="#000000" font-family="sans-serif" font-size="14" font-weight="bold" lengthAdjust="spacing" textLength="469" x="10" y="22.9951">Caso de Uso Creaci&#243;n de Horario de Clases - TimeGuardian</text><g id="INICIO"><rect fill="#FAF4B4" height="50" rx="12.5" ry="12.5" style="stroke:#C90000;stroke-width:0.5;" width="60" x="190.625" y="44.2969"/><line style="stroke:#C90000;stroke-width:0.5;" x1="190.625" x2="250.625" y1="70.5938" y2="70.5938"/><text fill="#000000" font-family="sans-serif" font-size="14" lengthAdjust="spacing" textLength="40" x="200.625" y="62.292">INICIO</text></g><path d="M68.875,204.2969 L372.375,204.2969 A12.5,12.5 0 0 1 384.875,216.7969 L384.875,230.5938 L56.375,230.5938 L56.375,216.7969 A12.5,12.5 0 0 1 68.875,204.2969 " fill="#FAF4B4" style="stroke:#FAF4B4;stroke-width:1.0;"/><rect fill="none" height="549.2969" rx="12.5" ry="12.5" style="stroke:#C90000;stroke-width:0.5;" width="328.5" x="56.375" y="204.2969"/><line style="stroke:#C90000;stroke-width:0.5;" x1="56.375" x2="384.875" y1="230.5938" y2="230.5938"/><text fill="#000000" font-family="sans-serif" font-size="14" lengthAdjust="spacing" textLength="90" x="175.625" y="222.292">crear_horario</text><g id="crear_horario.A"><rect fill="#FAF4B4" height="50" rx="12.5" ry="12.5" style="stroke:#C90000;stroke-width:0.5;" width="163" x="68.375" y="298.5938"/><line style="stroke:#C90000;stroke-width:0.5;" x1="68.375" x2="231.375" y1="324.8906" y2="324.8906"/><text fill="#000000" font-family="sans-serif" font-size="14" lengthAdjust="spacing" textLength="143" x="78.375" y="316.5889">Seleccionar materias</text></g><g id="crear_horario.B"><rect fill="#FAF4B4" height="50" rx="12.5" ry="12.5" style="stroke:#C90000;stroke-width:0.5;" width="124" x="87.875" y="449.5938"/><line style="stroke:#C90000;stroke-width:0.5;" x1="87.875" x2="211.875" y1="475.8906" y2="475.8906"/><text fill="#000000" font-family="sans-serif" font-size="14" lengthAdjust="spacing" textLength="104" x="97.875" y="467.5889">Definir horarios</text></g><g id="crear_horario.C"><rect fill="#FAF4B4" height="50" rx="12.5" ry="12.5" style="stroke:#C90000;stroke-width:0.5;" width="138" x="80.875" y="600.5938"/><line style="stroke:#C90000;stroke-width:0.5;" x1="80.875" x2="218.875" y1="626.8906" y2="626.8906"/><text fill="#000000" font-family="sans-serif" font-size="14" lengthAdjust="spacing" textLength="118" x="90.875" y="618.5889">Confirmar horario</text></g><ellipse cx="149.875" cy="251.5938" fill="#222222" rx="10" ry="10" style="stroke:#222222;stroke-width:1.0;"/><ellipse cx="149.875" cy="732.5938" fill="none" rx="11" ry="11" style="stroke:#222222;stroke-width:1.0;"/><ellipse cx="149.875" cy="732.5938" fill="#222222" rx="6" ry="6" style="stroke:#222222;stroke-width:1.0;"/><!--link *start*crear_horario to A--><g id="link_*start*crear_horario_A"><path d="M149.875,262.0338 C149.875,271.2938 149.875,279.7838 149.875,292.2738 " fill="none" id="*start*crear_horario-to-A" style="stroke:#C90000;stroke-width:1.0;"/><polygon fill="#C90000" points="149.875,298.2738,153.875,289.2738,149.875,293.2738,145.875,289.2738,149.875,298.2738" style="stroke:#C90000;stroke-width:1.0;"/></g><!--link A to B--><g id="link_A_B"><path d="M149.875,348.8638 C149.875,376.5738 149.875,415.6338 149.875,443.3338 " fill="none" id="A-to-B" style="stroke:#C90000;stroke-width:1.0;"/><polygon fill="#C90000" points="149.875,449.3338,153.875,440.3338,149.875,444.3338,145.875,440.3338,149.875,449.3338" style="stroke:#C90000;stroke-width:1.0;"/><path d="M154.875,371.5938 L154.875,426.5938 L375.875,426.5938 L375.875,381.5938 L365.875,371.5938 L154.875,371.5938 " fill="#F5F5F5" style="stroke:#181818;stroke-width:0.5;"/><path d="M365.875,371.5938 L365.875,381.5938 L375.875,381.5938 L365.875,371.5938 " fill="#F5F5F5" style="stroke:#181818;stroke-width:0.5;"/><text fill="#000000" font-family="sans-serif" font-size="13" font-weight="bold" lengthAdjust="spacing" textLength="158" x="160.875" y="388.6606">Profesor debe elegir:</text><text fill="#000000" font-family="sans-serif" font-size="13" lengthAdjust="spacing" textLength="130" x="160.875" y="403.7935">- Materias a impartir</text><text fill="#000000" font-family="sans-serif" font-size="13" lengthAdjust="spacing" textLength="200" x="160.875" y="418.9263">- N&#250;mero de horas por materia</text></g><!--link B to C--><g id="link_B_C"><path d="M149.875,499.8638 C149.875,527.5738 149.875,566.6338 149.875,594.3338 " fill="none" id="B-to-C" style="stroke:#C90000;stroke-width:1.0;"/><polygon fill="#C90000" points="149.875,600.3338,153.875,591.3338,149.875,595.3338,145.875,591.3338,149.875,600.3338" style="stroke:#C90000;stroke-width:1.0;"/><path d="M154.875,522.5938 L154.875,577.5938 L360.875,577.5938 L360.875,532.5938 L350.875,522.5938 L154.875,522.5938 " fill="#F5F5F5" style="stroke:#181818;stroke-width:0.5;"/><path d="M350.875,522.5938 L350.875,532.5938 L360.875,532.5938 L350.875,522.5938 " fill="#F5F5F5" style="stroke:#181818;stroke-width:0.5;"/><text fill="#000000" font-family="sans-serif" font-size="13" font-weight="bold" lengthAdjust="spacing" textLength="122" x="160.875" y="539.6606">Profesor asigna:</text><text fill="#000000" font-family="sans-serif" font-size="13" lengthAdjust="spacing" textLength="185" x="160.875" y="554.7935">- Horarios para cada materia</text><text fill="#000000" font-family="sans-serif" font-size="13" lengthAdjust="spacing" textLength="119" x="160.875" y="569.9263">- Aulas disponibles</text></g><!--link C to *end*crear_horario--><g id="link_C_*end*crear_horario"><path d="M149.875,650.9438 C149.875,673.2438 149.875,699.1538 149.875,715.3338 " fill="none" id="C-to-*end*crear_horario" style="stroke:#008000;stroke-width:1.0;"/><polygon fill="#008000" points="149.875,721.3338,153.875,712.3338,149.875,716.3338,145.875,712.3338,149.875,721.3338" style="stroke:#008000;stroke-width:1.0;"/><path d="M154.875,673.5938 L154.875,698.5938 L364.875,698.5938 L364.875,683.5938 L354.875,673.5938 L154.875,673.5938 " fill="#F5F5F5" style="stroke:#181818;stroke-width:0.5;"/><path d="M354.875,673.5938 L354.875,683.5938 L364.875,683.5938 L354.875,673.5938 " fill="#F5F5F5" style="stroke:#181818;stroke-width:0.5;"/><text fill="#000000" font-family="sans-serif" font-size="13" lengthAdjust="spacing" textLength="189" x="160.875" y="690.6606">[conflicto de horarios o aulas]</text></g><g id=":mostrarHorarioFinal"><rect fill="#FAF4B4" height="50" rx="12.5" ry="12.5" style="stroke:#C90000;stroke-width:0.5;" width="158" x="141.625" y="814.5969"/><line style="stroke:#C90000;stroke-width:0.5;" x1="141.625" x2="299.625" y1="840.8938" y2="840.8938"/><text fill="#000000" font-family="sans-serif" font-size="14" lengthAdjust="spacing" textLength="138" x="151.625" y="832.592">:mostrarHorarioFinal</text></g><g id="HORARIO_FINAL"><rect fill="#FAF4B4" height="50" rx="12.5" ry="12.5" style="stroke:#C90000;stroke-width:0.5;" width="128" x="156.625" y="925.5969"/><line style="stroke:#C90000;stroke-width:0.5;" x1="156.625" x2="284.625" y1="951.8938" y2="951.8938"/><text fill="#000000" font-family="sans-serif" font-size="14" lengthAdjust="spacing" textLength="108" x="166.625" y="943.592">HORARIO_FINAL</text></g><!--link INICIO to crear_horario--><g id="link_INICIO_crear_horario"><path d="M220.625,94.5769 C220.625,118.7469 220.625,152.6769 220.625,197.8569 " fill="none" id="INICIO-to-crear_horario" style="stroke:#C90000;stroke-width:1.0;"/><polygon fill="#C90000" points="220.625,203.8569,224.625,194.8569,220.625,198.8569,216.625,194.8569,220.625,203.8569" style="stroke:#C90000;stroke-width:1.0;"/><path d="M225.625,129.2969 L225.625,169.2969 L446.625,169.2969 L446.625,139.2969 L436.625,129.2969 L225.625,129.2969 " fill="#F5F5F5" style="stroke:#181818;stroke-width:0.5;"/><path d="M436.625,129.2969 L436.625,139.2969 L446.625,139.2969 L436.625,129.2969 " fill="#F5F5F5" style="stroke:#181818;stroke-width:0.5;"/><text fill="#000000" font-family="sans-serif" font-size="13" font-weight="bold" lengthAdjust="spacing" textLength="125" x="231.625" y="146.3638">Profesor solicita:</text><text fill="#000000" font-family="sans-serif" font-size="13" lengthAdjust="spacing" textLength="200" x="231.625" y="161.4966">- Crear nuevo horario de clases</text></g><!--link crear_horario to :mostrarHorarioFinal--><g id="link_crear_horario_:mostrarHorarioFinal"><path d="M220.625,754.0569 C220.625,778.2969 220.625,793.2869 220.625,808.2969 " fill="none" id="crear_horario-to-:mostrarHorarioFinal" style="stroke:#C90000;stroke-width:1.0;"/><polygon fill="#C90000" points="220.625,814.2969,224.625,805.2969,220.625,809.2969,216.625,805.2969,220.625,814.2969" style="stroke:#C90000;stroke-width:1.0;"/></g><!--link :mostrarHorarioFinal to HORARIO_FINAL--><g id="link_:mostrarHorarioFinal_HORARIO_FINAL"><path d="M220.625,865.0569 C220.625,883.0069 220.625,901.2869 220.625,919.2169 " fill="none" id=":mostrarHorarioFinal-to-HORARIO_FINAL" style="stroke:#C90000;stroke-width:1.0;"/><polygon fill="#C90000" points="220.625,925.2169,224.625,916.2169,220.625,920.2169,216.625,916.2169,220.625,925.2169" style="stroke:#C90000;stroke-width:1.0;"/></g><!--SRC=[TLBDQjj04BxlKmpfJI3e8JqqXuAo8OsWjKlQdem9uzN86Ipjcbcv44gVghTUysATNTkoLTpLGMZcq_Spit73Vek2FSG11uAV1k0MtMOjOUSR6xeWyAR5zdfrdJf16f93rRr_gyVyCYQE93xyb-DTUgReZZqDBrk2RUXUqeSn0myTWSKOe27uhYyhX8vVV_jKU0Y2mhbdEumKeOHltDF77Kh3w8sfPxMjvr0k3lwMvGTmIY5Fp_j_JVOOV5BVgDEY-2AXfQWcO-ZOyO0tHQ6DCaiB-1tz2F1yKdPPsP1lSbvDb4StKSb3sDUllb97pd7mIjPhHHZZ5M24weIvevOzor5ctxyzzMtmBKkF8o83h574ebXEuoRQQbfAJF_aJkSiUqCh0ZMwPjd7JwU4pmU_WC2zRcrW6NkprpyzIHv9CXLrZMD01OtpqTimTMClkJdpWf7N7eysokFMLK2l3JXiy4mc0QgThWGQZjlWUTNfSYRoDiclXSWdTPtN9Vs5qn7h_eSnK9OCW8byUSwebtYwx4cwcpx4GUi7r_ViiJFcKdNwtyFyiNgivq_tzQpwz1S0]--></g></svg>