<svg xmlns="http://www.w3.org/2000/svg" xmlns:xlink="http://www.w3.org/1999/xlink" contentStyleType="text/css" height="653px" preserveAspectRatio="none" style="width:615px;height:653px;background:#FFFFFF;" version="1.1" viewBox="0 0 615 653" width="615px" zoomAndPan="magnify"><defs/><g><text fill="#000000" font-family="sans-serif" font-size="14" font-weight="bold" lengthAdjust="spacing" textLength="290.001" x="152.3001" y="22.9951">Caso de Uso Asignaci&#243;n de Docentes</text><ellipse cx="304.3" cy="53.2969" fill="#222222" rx="10" ry="10" style="stroke:#222222;stroke-width:1.0;"/><path d="M19.5,173.2969 L589.1012,173.2969 A12.5,12.5 0 0 1 601.6012,185.7969 L601.6012,199.5938 L7,199.5938 L7,185.7969 A12.5,12.5 0 0 1 19.5,173.2969 " fill="#FAF4B4" style="stroke:#FAF4B4;stroke-width:1.0;"/><rect fill="none" height="474.6969" rx="12.5" ry="12.5" style="stroke:#C90000;stroke-width:0.5;" width="594.6012" x="7" y="173.2969"/><line style="stroke:#C90000;stroke-width:0.5;" x1="7" x2="601.6012" y1="199.5938" y2="199.5938"/><text fill="#000000" font-family="sans-serif" font-size="14" lengthAdjust="spacing" textLength="36.8047" x="285.8983" y="191.292">inicio</text><ellipse cx="151.11" cy="220.5938" fill="#222222" rx="10" ry="10" style="stroke:#222222;stroke-width:1.0;"/><g id="inicio.revisar_disponibilidad_docentes"><rect fill="#FAF4B4" height="50" rx="12.5" ry="12.5" style="stroke:#C90000;stroke-width:0.5;" width="264.2207" x="19" y="266.5938"/><line style="stroke:#C90000;stroke-width:0.5;" x1="19" x2="283.2207" y1="292.8906" y2="292.8906"/><text fill="#000000" font-family="sans-serif" font-size="14" lengthAdjust="spacing" textLength="244.2207" x="29" y="284.5889">Revisar disponibilidad de docentes</text></g><g id="inicio.evaluar_perfiles_docentes"><rect fill="#FAF4B4" height="50" rx="12.5" ry="12.5" style="stroke:#C90000;stroke-width:0.5;" width="219.5615" x="41.33" y="352.5938"/><line style="stroke:#C90000;stroke-width:0.5;" x1="41.33" x2="260.8915" y1="378.8906" y2="378.8906"/><text fill="#000000" font-family="sans-serif" font-size="14" lengthAdjust="spacing" textLength="199.5615" x="51.33" y="370.5889">Evaluar perfiles de docentes</text></g><g id="elem_GMN10"><path d="M301.61,271.4638 L301.61,287.5938 L283.5,291.5938 L301.61,295.5938 L301.61,311.7294 A0,0 0 0 0 301.61,311.7294 L592.6012,311.7294 A0,0 0 0 0 592.6012,311.7294 L592.6012,281.4638 L582.6012,271.4638 L301.61,271.4638 A0,0 0 0 0 301.61,271.4638 " fill="#F5F5F5" style="stroke:#181818;stroke-width:0.5;"/><path d="M582.6012,271.4638 L582.6012,281.4638 L592.6012,281.4638 L582.6012,271.4638 " fill="#F5F5F5" style="stroke:#181818;stroke-width:0.5;"/><text fill="#000000" font-family="sans-serif" font-size="13" lengthAdjust="spacing" textLength="143.9902" x="307.61" y="288.5306">Administrador eval&#250;a:</text><text fill="#000000" font-family="sans-serif" font-size="13" lengthAdjust="spacing" textLength="269.9912" x="307.61" y="303.6635">- Perfiles y especializaciones de docentes</text></g><g id="inicio.asignar_docentes"><rect fill="#FAF4B4" height="50" rx="12.5" ry="12.5" style="stroke:#C90000;stroke-width:0.5;" width="141.3379" x="80.44" y="438.5938"/><line style="stroke:#C90000;stroke-width:0.5;" x1="80.44" x2="221.7779" y1="464.8906" y2="464.8906"/><text fill="#000000" font-family="sans-serif" font-size="14" lengthAdjust="spacing" textLength="121.3379" x="90.44" y="456.5889">Asignar docentes</text></g><g id="elem_GMN15"><path d="M239.82,451.0338 L239.82,459.5938 L221.94,463.5938 L239.82,467.5938 L239.82,476.1666 A0,0 0 0 0 239.82,476.1666 L524.4001,476.1666 A0,0 0 0 0 524.4001,476.1666 L524.4001,461.0338 L514.4001,451.0338 L239.82,451.0338 A0,0 0 0 0 239.82,451.0338 " fill="#F5F5F5" style="stroke:#181818;stroke-width:0.5;"/><path d="M514.4001,451.0338 L514.4001,461.0338 L524.4001,461.0338 L514.4001,451.0338 " fill="#F5F5F5" style="stroke:#181818;stroke-width:0.5;"/><text fill="#000000" font-family="sans-serif" font-size="13" lengthAdjust="spacing" textLength="263.5801" x="245.82" y="468.1006">Asignar docentes a cursos o asignaturas</text></g><g id="inicio.confirmar_asignaciones"><rect fill="#FAF4B4" height="50" rx="12.5" ry="12.5" style="stroke:#C90000;stroke-width:0.5;" width="185.2451" x="58.49" y="527.2938"/><line style="stroke:#C90000;stroke-width:0.5;" x1="58.49" x2="243.7351" y1="553.5906" y2="553.5906"/><text fill="#000000" font-family="sans-serif" font-size="14" lengthAdjust="spacing" textLength="165.2451" x="68.49" y="545.2889">Confirmar asignaciones</text></g><g id="elem_GMN20"><path d="M261.48,524.5938 L261.48,548.2938 L244.22,552.2938 L261.48,556.2938 L261.48,579.9922 A0,0 0 0 0 261.48,579.9922 L460.7349,579.9922 A0,0 0 0 0 460.7349,579.9922 L460.7349,534.5938 L450.7349,524.5938 L261.48,524.5938 A0,0 0 0 0 261.48,524.5938 " fill="#F5F5F5" style="stroke:#181818;stroke-width:0.5;"/><path d="M450.7349,524.5938 L450.7349,534.5938 L460.7349,534.5938 L450.7349,524.5938 " fill="#F5F5F5" style="stroke:#181818;stroke-width:0.5;"/><text fill="#000000" font-family="sans-serif" font-size="13" lengthAdjust="spacing" textLength="158.0186" x="267.48" y="541.6606">Administrador confirma:</text><text fill="#000000" font-family="sans-serif" font-size="13" lengthAdjust="spacing" textLength="178.2549" x="267.48" y="556.7935">- Asignaciones de docentes</text><text fill="#000000" font-family="sans-serif" font-size="13" lengthAdjust="spacing" textLength="132.0376" x="267.48" y="571.9263">Proceso completado</text></g><ellipse cx="151.11" cy="626.9938" fill="none" rx="11" ry="11" style="stroke:#222222;stroke-width:1.0;"/><ellipse cx="151.11" cy="626.9938" fill="#222222" rx="6" ry="6" style="stroke:#222222;stroke-width:1.0;"/><!--link *start*inicio to revisar_disponibilidad_docentes--><g id="link_*start*inicio_revisar_disponibilidad_docentes"><path d="M151.11,230.9038 C151.11,239.9538 151.11,248.0838 151.11,260.3238 " fill="none" id="*start*inicio-to-revisar_disponibilidad_docentes" style="stroke:#181818;stroke-width:1.0;"/><polygon fill="#181818" points="151.11,266.3238,155.11,257.3238,151.11,261.3238,147.11,257.3238,151.11,266.3238" style="stroke:#181818;stroke-width:1.0;"/></g><!--link revisar_disponibilidad_docentes to evaluar_perfiles_docentes--><g id="link_revisar_disponibilidad_docentes_evaluar_perfiles_docentes"><path d="M151.11,316.8938 C151.11,328.0338 151.11,335.2138 151.11,346.3538 " fill="none" id="revisar_disponibilidad_docentes-to-evaluar_perfiles_docentes" style="stroke:#181818;stroke-width:1.0;"/><polygon fill="#181818" points="151.11,352.3538,155.11,343.3538,151.11,347.3538,147.11,343.3538,151.11,352.3538" style="stroke:#181818;stroke-width:1.0;"/></g><!--link evaluar_perfiles_docentes to asignar_docentes--><g id="link_evaluar_perfiles_docentes_asignar_docentes"><path d="M151.11,402.8938 C151.11,414.0338 151.11,421.2138 151.11,432.3538 " fill="none" id="evaluar_perfiles_docentes-to-asignar_docentes" style="stroke:#181818;stroke-width:1.0;"/><polygon fill="#181818" points="151.11,438.3538,155.11,429.3538,151.11,433.3538,147.11,429.3538,151.11,438.3538" style="stroke:#181818;stroke-width:1.0;"/></g><!--link asignar_docentes to confirmar_asignaciones--><g id="link_asignar_docentes_confirmar_asignaciones"><path d="M151.11,488.7438 C151.11,500.6738 151.11,509.0238 151.11,520.9738 " fill="none" id="asignar_docentes-to-confirmar_asignaciones" style="stroke:#181818;stroke-width:1.0;"/><polygon fill="#181818" points="151.11,526.9738,155.11,517.9738,151.11,521.9738,147.11,517.9738,151.11,526.9738" style="stroke:#181818;stroke-width:1.0;"/></g><!--link confirmar_asignaciones to *end*inicio--><g id="link_confirmar_asignaciones_*end*inicio"><path d="M151.11,577.5038 C151.11,590.5538 151.11,599.9638 151.11,609.8538 " fill="none" id="confirmar_asignaciones-to-*end*inicio" style="stroke:#181818;stroke-width:1.0;"/><polygon fill="#181818" points="151.11,615.8538,155.11,606.8538,151.11,610.8538,147.11,606.8538,151.11,615.8538" style="stroke:#181818;stroke-width:1.0;"/></g><!--link *start* to inicio--><g id="link_*start*_inicio"><path d="M304.3,63.4369 C304.3,81.3669 304.3,117.6969 304.3,166.8369 " fill="none" id="*start*-to-inicio" style="stroke:#181818;stroke-width:1.0;"/><polygon fill="#181818" points="304.3,172.8369,308.3,163.8369,304.3,167.8369,300.3,163.8369,304.3,172.8369" style="stroke:#181818;stroke-width:1.0;"/><path d="M309.3,98.2969 L309.3,138.2969 L568.3,138.2969 L568.3,108.2969 L558.3,98.2969 L309.3,98.2969 " fill="#F5F5F5" style="stroke:#181818;stroke-width:0.5;"/><path d="M558.3,98.2969 L558.3,108.2969 L568.3,108.2969 L558.3,98.2969 " fill="#F5F5F5" style="stroke:#181818;stroke-width:0.5;"/><text fill="#000000" font-family="sans-serif" font-size="13" lengthAdjust="spacing" textLength="134.7036" x="315.3" y="115.3638">Administrador inicia:</text><text fill="#000000" font-family="sans-serif" font-size="13" lengthAdjust="spacing" textLength="238.0815" x="315.3" y="130.4966">- Proceso de asignaci&#243;n de docentes</text></g><!--SRC=[ZLFBJiCm4BpxArRbXbI9Goi41wHIk2C49uGgrtRAgeuTsKx5G_qgRbpxOsoSHvEGg2I7IBlZcPtPs6_HPDpn57pWGS4N0xZbOhjnDZToQRLrS9RmPBQU5Hthf79LLLnTq4FL9_KUgjhbl7ZPdZ7V41ixoZiltZ66W44hM79lGIfufi_2uyPmWOTlKvJkh50cAC_Oo_ahJAStW0O5MXOLhG6DPali2vbImmV79Ib43B-c-XGU756K_BpBBMjkPMHqG8vYGAL4z5EhEhL3pzrAei-imJLgb5ok6Wgeifqyba3e0jjo4vhZ91yHde34iTIEwvmmcN89QkNR0yM476xU0jZa7mRw8HRSXv-OOionae0FK3vJbA_6JmhJ6ggrqmGuvjd4SbyE2lMWVm8PTr8GZZLZ2ELQtS0oof_9TPK6uDse1W00VIhW87BdhGTR7GYvutttVQeuhx0cGPTIkVuXYmoFKo_hFhJxSVRHerq7ex3-ZcjWlUH52zvRAZGtITWqqoeGGS_ji6pqJFU8xNy1]--></g></svg>