<svg xmlns="http://www.w3.org/2000/svg" xmlns:xlink="http://www.w3.org/1999/xlink" contentStyleType="text/css" height="1102px" preserveAspectRatio="none" style="width:512px;height:1102px;background:#FFFFFF;" version="1.1" viewBox="0 0 512 1102" width="512px" zoomAndPan="magnify"><defs/><g><text fill="#000000" font-family="sans-serif" font-size="14" font-weight="bold" lengthAdjust="spacing" textLength="454" x="19" y="22.9951">Caso de Uso Creaci&#243;n de Horario General - TimeGuardian</text><g id="INICIO"><rect fill="#FAF4B4" height="50" rx="12.5" ry="12.5" style="stroke:#C90000;stroke-width:0.5;" width="60" x="223" y="44.2969"/><line style="stroke:#C90000;stroke-width:0.5;" x1="223" x2="283" y1="70.5938" y2="70.5938"/><text fill="#000000" font-family="sans-serif" font-size="14" lengthAdjust="spacing" textLength="40" x="233" y="62.292">INICIO</text></g><path d="M19.5,204.2969 L486.5,204.2969 A12.5,12.5 0 0 1 499,216.7969 L499,230.5938 L7,230.5938 L7,216.7969 A12.5,12.5 0 0 1 19.5,204.2969 " fill="#FAF4B4" style="stroke:#FAF4B4;stroke-width:1.0;"/><rect fill="none" height="670.2969" rx="12.5" ry="12.5" style="stroke:#C90000;stroke-width:0.5;" width="492" x="7" y="204.2969"/><line style="stroke:#C90000;stroke-width:0.5;" x1="7" x2="499" y1="230.5938" y2="230.5938"/><text fill="#000000" font-family="sans-serif" font-size="14" lengthAdjust="spacing" textLength="149" x="178.5" y="222.292">crear_horario_general</text><g id="crear_horario_general.A"><rect fill="#FAF4B4" height="50" rx="12.5" ry="12.5" style="stroke:#C90000;stroke-width:0.5;" width="286" x="19" y="298.5938"/><line style="stroke:#C90000;stroke-width:0.5;" x1="19" x2="305" y1="324.8906" y2="324.8906"/><text fill="#000000" font-family="sans-serif" font-size="14" lengthAdjust="spacing" textLength="266" x="29" y="316.5889">Recopilar disponibilidad y necesidades</text></g><g id="crear_horario_general.B"><rect fill="#FAF4B4" height="50" rx="12.5" ry="12.5" style="stroke:#C90000;stroke-width:0.5;" width="216" x="54" y="449.5938"/><line style="stroke:#C90000;stroke-width:0.5;" x1="54" x2="270" y1="475.8906" y2="475.8906"/><text fill="#000000" font-family="sans-serif" font-size="14" lengthAdjust="spacing" textLength="196" x="64" y="467.5889">Elaborar borrador del horario</text></g><g id="crear_horario_general.C"><rect fill="#FAF4B4" height="50" rx="12.5" ry="12.5" style="stroke:#C90000;stroke-width:0.5;" width="226" x="49" y="585.5938"/><line style="stroke:#C90000;stroke-width:0.5;" x1="49" x2="275" y1="611.8906" y2="611.8906"/><text fill="#000000" font-family="sans-serif" font-size="14" lengthAdjust="spacing" textLength="206" x="59" y="603.5889">Consultar con departamentos</text></g><g id="crear_horario_general.D"><rect fill="#FAF4B4" height="50" rx="12.5" ry="12.5" style="stroke:#C90000;stroke-width:0.5;" width="212" x="56" y="721.5938"/><line style="stroke:#C90000;stroke-width:0.5;" x1="56" x2="268" y1="747.8906" y2="747.8906"/><text fill="#000000" font-family="sans-serif" font-size="14" lengthAdjust="spacing" textLength="192" x="66" y="739.5889">Finalizar y publicar el horario</text></g><ellipse cx="162" cy="251.5938" fill="#222222" rx="10" ry="10" style="stroke:#222222;stroke-width:1.0;"/><ellipse cx="162" cy="853.5938" fill="none" rx="11" ry="11" style="stroke:#222222;stroke-width:1.0;"/><ellipse cx="162" cy="853.5938" fill="#222222" rx="6" ry="6" style="stroke:#222222;stroke-width:1.0;"/><!--link *start*crear_horario_general to A--><g id="link_*start*crear_horario_general_A"><path d="M162,262.0338 C162,271.2938 162,279.7838 162,292.2737 " fill="none" id="*start*crear_horario_general-to-A" style="stroke:#C90000;stroke-width:1.0;"/><polygon fill="#C90000" points="162,298.2737,166,289.2737,162,293.2737,158,289.2737,162,298.2737" style="stroke:#C90000;stroke-width:1.0;"/></g><!--link A to B--><g id="link_A_B"><path d="M162,348.8638 C162,376.5738 162,415.6338 162,443.3338 " fill="none" id="A-to-B" style="stroke:#C90000;stroke-width:1.0;"/><polygon fill="#C90000" points="162,449.3338,166,440.3338,162,444.3338,158,440.3338,162,449.3338" style="stroke:#C90000;stroke-width:1.0;"/><path d="M167,371.5938 L167,426.5938 L417,426.5938 L417,381.5938 L407,371.5938 L167,371.5938 " fill="#F5F5F5" style="stroke:#181818;stroke-width:0.5;"/><path d="M407,371.5938 L407,381.5938 L417,381.5938 L407,371.5938 " fill="#F5F5F5" style="stroke:#181818;stroke-width:0.5;"/><text fill="#000000" font-family="sans-serif" font-size="13" font-weight="bold" lengthAdjust="spacing" textLength="174" x="173" y="388.6606">Administrador recopila:</text><text fill="#000000" font-family="sans-serif" font-size="13" lengthAdjust="spacing" textLength="229" x="173" y="403.7935">- Disponibilidad de docentes y aulas</text><text fill="#000000" font-family="sans-serif" font-size="13" lengthAdjust="spacing" textLength="212" x="173" y="418.9263">- Necesidades de las asignaturas</text></g><!--link B to C--><g id="link_B_C"><path d="M162,499.8638 C162,524.1438 162,555.2838 162,579.5038 " fill="none" id="B-to-C" style="stroke:#C90000;stroke-width:1.0;"/><polygon fill="#C90000" points="162,585.5038,166,576.5038,162,580.5038,158,576.5038,162,585.5038" style="stroke:#C90000;stroke-width:1.0;"/><path d="M167,522.5938 L167,562.5938 L369,562.5938 L369,532.5938 L359,522.5938 L167,522.5938 " fill="#F5F5F5" style="stroke:#181818;stroke-width:0.5;"/><path d="M359,522.5938 L359,532.5938 L369,532.5938 L359,522.5938 " fill="#F5F5F5" style="stroke:#181818;stroke-width:0.5;"/><text fill="#000000" font-family="sans-serif" font-size="13" font-weight="bold" lengthAdjust="spacing" textLength="171" x="173" y="539.6606">Administrador elabora:</text><text fill="#000000" font-family="sans-serif" font-size="13" lengthAdjust="spacing" textLength="181" x="173" y="554.7935">- Primera versi&#243;n del horario</text></g><!--link C to D--><g id="link_C_D"><path d="M162,635.8638 C162,660.1438 162,691.2838 162,715.5038 " fill="none" id="C-to-D" style="stroke:#C90000;stroke-width:1.0;"/><polygon fill="#C90000" points="162,721.5038,166,712.5038,162,716.5038,158,712.5038,162,721.5038" style="stroke:#C90000;stroke-width:1.0;"/><path d="M167,658.5938 L167,698.5938 L490,698.5938 L490,668.5938 L480,658.5938 L167,658.5938 " fill="#F5F5F5" style="stroke:#181818;stroke-width:0.5;"/><path d="M480,658.5938 L480,668.5938 L490,668.5938 L480,658.5938 " fill="#F5F5F5" style="stroke:#181818;stroke-width:0.5;"/><text fill="#000000" font-family="sans-serif" font-size="13" font-weight="bold" lengthAdjust="spacing" textLength="177" x="173" y="675.6606">Administrador consulta:</text><text fill="#000000" font-family="sans-serif" font-size="13" lengthAdjust="spacing" textLength="302" x="173" y="690.7935">- Ajustes y aprobaciones de los departamentos</text></g><!--link D to *end*crear_horario_general--><g id="link_D_*end*crear_horario_general"><path d="M162,771.9438 C162,794.2438 162,820.1538 162,836.3338 " fill="none" id="D-to-*end*crear_horario_general" style="stroke:#008000;stroke-width:1.0;"/><polygon fill="#008000" points="162,842.3338,166,833.3338,162,837.3338,158,833.3338,162,842.3338" style="stroke:#008000;stroke-width:1.0;"/><path d="M167,794.5938 L167,819.5938 L375,819.5938 L375,804.5938 L365,794.5938 L167,794.5938 " fill="#F5F5F5" style="stroke:#181818;stroke-width:0.5;"/><path d="M365,794.5938 L365,804.5938 L375,804.5938 L365,794.5938 " fill="#F5F5F5" style="stroke:#181818;stroke-width:0.5;"/><text fill="#000000" font-family="sans-serif" font-size="13" lengthAdjust="spacing" textLength="187" x="173" y="811.6606">[horario general completado]</text></g><g id=":publicarHorario"><rect fill="#FAF4B4" height="50" rx="12.5" ry="12.5" style="stroke:#C90000;stroke-width:0.5;" width="128" x="189" y="935.5969"/><line style="stroke:#C90000;stroke-width:0.5;" x1="189" x2="317" y1="961.8938" y2="961.8938"/><text fill="#000000" font-family="sans-serif" font-size="14" lengthAdjust="spacing" textLength="108" x="199" y="953.592">:publicarHorario</text></g><g id="HORARIO_GENERAL_PUBLICADO"><rect fill="#FAF4B4" height="50" rx="12.5" ry="12.5" style="stroke:#C90000;stroke-width:0.5;" width="243" x="131.5" y="1046.5969"/><line style="stroke:#C90000;stroke-width:0.5;" x1="131.5" x2="374.5" y1="1072.8938" y2="1072.8938"/><text fill="#000000" font-family="sans-serif" font-size="14" lengthAdjust="spacing" textLength="223" x="141.5" y="1064.592">HORARIO_GENERAL_PUBLICADO</text></g><!--link INICIO to crear_horario_general--><g id="link_INICIO_crear_horario_general"><path d="M253,94.4869 C253,118.4069 253,152.0269 253,198.0269 " fill="none" id="INICIO-to-crear_horario_general" style="stroke:#C90000;stroke-width:1.0;"/><polygon fill="#C90000" points="253,204.0269,257,195.0269,253,199.0269,249,195.0269,253,204.0269" style="stroke:#C90000;stroke-width:1.0;"/><path d="M258,129.2969 L258,169.2969 L486,169.2969 L486,139.2969 L476,129.2969 L258,129.2969 " fill="#F5F5F5" style="stroke:#181818;stroke-width:0.5;"/><path d="M476,129.2969 L476,139.2969 L486,139.2969 L476,129.2969 " fill="#F5F5F5" style="stroke:#181818;stroke-width:0.5;"/><text fill="#000000" font-family="sans-serif" font-size="13" font-weight="bold" lengthAdjust="spacing" textLength="153" x="264" y="146.3638">Administrador inicia:</text><text fill="#000000" font-family="sans-serif" font-size="13" lengthAdjust="spacing" textLength="207" x="264" y="161.4966">- Elaboraci&#243;n del horario general</text></g><!--link crear_horario_general to :publicarHorario--><g id="link_crear_horario_general_:publicarHorario"><path d="M253,875.0269 C253,899.4769 253,914.3369 253,929.2369 " fill="none" id="crear_horario_general-to-:publicarHorario" style="stroke:#C90000;stroke-width:1.0;"/><polygon fill="#C90000" points="253,935.2369,257,926.2369,253,930.2369,249,926.2369,253,935.2369" style="stroke:#C90000;stroke-width:1.0;"/></g><!--link :publicarHorario to HORARIO_GENERAL_PUBLICADO--><g id="link_:publicarHorario_HORARIO_GENERAL_PUBLICADO"><path d="M253,986.0569 C253,1004.0069 253,1022.2869 253,1040.2169 " fill="none" id=":publicarHorario-to-HORARIO_GENERAL_PUBLICADO" style="stroke:#C90000;stroke-width:1.0;"/><polygon fill="#C90000" points="253,1046.2169,257,1037.2169,253,1041.2169,249,1037.2169,253,1046.2169" style="stroke:#C90000;stroke-width:1.0;"/></g><!--SRC=[ZPF1Yjim48RlUefXUmiOUjWUkeU2uwJPm98ieNiA8KoasLID8Xb9BgIbJzL7w8jrP3l9ogHG1HnP-ZNpwPznE6XReySZX8YHuAS06ACyxBrhhAgSSHxUlUBh_Uu-xJYloFUhykDx7kAN4E4InBf_nlYGVhdQQ4lnL1FKpfpIYn1HHqDGON2W25xuh_A4Kl_vRTF2e_FejOCPMV9ee80l-aYp1htIQ8MOB-RLV0d5kgVR59z0SW2__TgTtEwxaw8bTJOn79XtD2hLKLiTeaV5l3oL6Xz68zuhO6fmn-VF60RwQ72EHbQrT-VRjJRUpDaQq-tVhKYwMXlqe7IedTKxRRH21IUm92caEOKxm03bzLJFuO6V7USRc5OyleehPqDZ8gkbIzJiUSGZsUYwkDLL-bbRDFe7IqzGDpkZ9Ky7aIU2zUlH9ZStmPNvKa8Ok9l6q67VEz1vd4O1azmBBhXoaeafC1Ws1iD5khYwb7IynP1wRp4slfLTIiBDc0DMjm27UDHPVQOhuDbpftc4x-J3i0_oT5MURl8_wMHVh6k-ybiJ-elNtksu-Ppjx-f2Niuy_IIbttiYcx9pnMxbNmywc06EjQ78C9ktuVXxlTtBsHKVpatJVvz235To_UDoLQxco-rikfYkogVjyyluQLwLa-LV]--></g></svg>